<?xml version="1.0"?>
<svg xmlns="http://www.w3.org/2000/svg" viewBox="0 0 64 64" width="64px" height="64px">
    <path style="line-height:normal;text-indent:0;text-align:start;text-decoration-line:none;text-decoration-style:solid;text-decoration-color:#000;text-transform:none;block-progression:tb;isolation:auto;mix-blend-mode:normal" d="M 22.970703 0 A 1.0001 1.0001 0 0 0 22.099609 0.56640625 L 9.0996094 27.566406 A 1.0001 1.0001 0 0 0 9.1054688 28.447266 L 22.105469 54.447266 A 1.0001 1.0001 0 0 0 24 54 L 24 43 A 1.0001 1.0001 0 0 0 23.517578 42.146484 C 23.517007 42.14604 23.514272 42.143078 23.513672 42.142578 C 23.498132 42.130328 23.462502 42.101001 23.414062 42.056641 C 23.313136 41.964221 23.163668 41.816278 22.988281 41.621094 C 22.637507 41.230725 22.181644 40.654138 21.736328 39.927734 C 20.97934 38.692935 20.360549 36.964326 20.160156 35 L 21.382812 35 L 23.105469 38.447266 A 1.0001 1.0001 0 0 0 24.894531 38.447266 L 26.617188 35 L 29.832031 35 C 29.696469 35.34059 29.478103 35.626909 29.070312 36.097656 C 28.299641 36.988276 27 38.53272 27 41 C 27 43.688239 28.54819 45.290377 29.378906 46.121094 C 29.720877 46.463557 29.902623 46.670189 29.953125 46.751953 C 30.003627 46.833718 30 46.793905 30 47 C 30 47.191856 29.999124 47.186176 29.939453 47.302734 C 29.879783 47.419292 29.711328 47.65539 29.412109 48.041016 C 28.481714 49.24153 27 51.256593 27 55 A 1.0001 1.0001 0 0 0 27.083984 55.400391 L 30.583984 63.400391 A 1.0001 1.0001 0 0 0 32.416016 63.400391 L 35.916016 55.400391 A 1.0001 1.0001 0 0 0 35 54 L 33.146484 54 C 33.29284 53.032928 33.584617 52.454969 34.15625 51.716797 L 34.154297 51.716797 C 34.883716 50.776317 36 49.296909 36 47 C 36 44.311761 34.45181 42.709623 33.621094 41.878906 C 33.279123 41.536443 33.097377 41.329811 33.046875 41.248047 C 32.996373 41.166282 33 41.206095 33 41 C 33 40.801711 32.999906 40.822612 33.056641 40.720703 C 33.113381 40.618794 33.288383 40.393247 33.607422 40.025391 C 34.408441 39.100732 35.602497 37.52732 35.884766 35 L 37.382812 35 L 39.105469 38.447266 A 1.0001 1.0001 0 0 0 40.894531 38.447266 L 42.617188 35 L 43.796875 35 C 43.543466 36.91094 42.775381 38.606582 41.824219 39.837891 C 41.262615 40.564904 40.687835 41.146931 40.244141 41.544922 C 40.022294 41.743917 39.833875 41.89757 39.701172 41.998047 C 39.634822 42.048287 39.581677 42.086157 39.552734 42.105469 C 39.523794 42.124779 39.467891 42.138622 39.619141 42.076172 A 1.0001 1.0001 0 0 0 39 43 L 39 49 A 1.0001 1.0001 0 0 0 40 50 L 41.142578 50 C 42.293893 50 43.347388 49.335406 43.845703 48.296875 L 43.818359 48.351562 L 54.873047 28.486328 A 1.0001 1.0001 0 0 0 54.900391 27.566406 L 41.900391 0.56640625 A 1.0001 1.0001 0 0 0 40 1 L 40 7 A 1.0001 1.0001 0 0 0 40.050781 7.3164062 L 43.611328 18 L 41 18 A 1.0001 1.0001 0 0 0 40.400391 19.800781 C 40.400391 19.800781 44 22.666667 44 26 C 44 26.527778 43.846858 26.777365 43.71875 26.9375 C 43.67081 26.99743 43.68173 26.9752 43.65625 27 L 42.617188 27 L 40.894531 23.552734 A 1.0001 1.0001 0 0 0 39.105469 23.552734 L 37.382812 27 L 34.771484 27 C 34.451617 25.550038 33.914896 24.304931 33.519531 23.457031 C 33.376057 23.149086 33.22912 22.831638 33.126953 22.578125 C 33.090398 22.487419 33.073839 22.413903 33.054688 22.341797 C 33.061542 22.336341 33.054623 22.342261 33.0625 22.335938 C 33.261443 22.176233 33.721058 21.896455 34.427734 21.513672 C 35.246156 21.070214 36.375888 20.474709 37.330078 19.507812 C 38.284268 18.540917 39.044139 17.131743 38.998047 15.335938 C 38.922086 12.347748 36.400683 10 33.435547 10 L 33.509766 10 L 31.90625 6.5761719 A 1.0001 1.0001 0 0 0 30.105469 6.5527344 L 28.179688 10.404297 C 27.489705 10.766765 25 12.207905 25 16 A 1.0001 1.0001 0 0 0 26.554688 16.832031 C 27.627994 16.116493 30 16 30 16 L 31.96875 16 C 31.807501 16.09214 31.773944 16.128918 31.572266 16.238281 C 30.765947 16.674453 29.659834 17.258746 28.714844 18.199219 C 27.769853 19.139691 27 20.503403 27 22.25 C 27 23.729657 27.595236 24.950526 28.080078 25.992188 A 1.0001 1.0001 0 0 0 28.080078 25.994141 C 28.259088 26.377333 28.348231 26.660542 28.507812 27 L 26.617188 27 L 24.894531 23.552734 A 1.0001 1.0001 0 0 0 23.105469 23.552734 L 21.382812 27 L 20.34375 27 C 20.31827 26.9752 20.32919 26.9974 20.28125 26.9375 C 20.153142 26.777365 20 26.527778 20 26 C 20 22.666667 23.599609 19.800781 23.599609 19.800781 A 1.0001 1.0001 0 0 0 23 18 L 20.388672 18 L 23.949219 7.3164062 A 1.0001 1.0001 0 0 0 24 7 L 24 1 A 1.0001 1.0001 0 0 0 22.970703 0 z M 22 5.3808594 L 22 6.8378906 L 18.050781 18.683594 A 1.0001 1.0001 0 0 0 19 20 L 20.556641 20 C 19.311673 21.362226 18 23.287555 18 26 C 18 26.972222 18.346858 27.722635 18.71875 28.1875 C 19.090642 28.652365 19.552734 28.894531 19.552734 28.894531 A 1.0001 1.0001 0 0 0 20 29 L 22 29 A 1.0001 1.0001 0 0 0 22.894531 28.447266 L 24 26.236328 L 25.105469 28.447266 A 1.0001 1.0001 0 0 0 26 29 L 30 29 A 1.0001 1.0001 0 0 0 30.980469 27.798828 C 30.758036 26.713204 30.225756 25.857047 29.894531 25.148438 C 29.409374 24.106099 29 23.172343 29 22.25 C 29 21.055597 29.44899 20.289964 30.125 19.617188 C 30.80101 18.944409 31.717756 18.431922 32.523438 17.996094 A 1.0001 1.0001 0 0 0 32.525391 17.996094 C 33.236181 17.610658 33.742442 17.32454 34.152344 17.003906 C 34.562245 16.683272 34.955634 16.202562 34.996094 15.611328 C 35.056978 14.706496 34.31823 14 33.466797 14 L 30 14 C 30 14 28.695266 14.120179 27.273438 14.517578 C 27.853869 12.540977 29.371094 11.927734 29.371094 11.927734 A 1.0001 1.0001 0 0 0 29.894531 11.447266 L 30.970703 9.2949219 L 31.96875 11.423828 A 1.0001 1.0001 0 0 0 32.875 12 L 33.435547 12 C 35.35041 12 36.950007 13.496904 36.998047 15.386719 C 37.029957 16.629913 36.58531 17.413459 35.90625 18.101562 C 35.22719 18.789666 34.295141 19.310364 33.476562 19.753906 C 32.74324 20.151123 32.227604 20.442547 31.810547 20.777344 C 31.39349 21.11214 31 21.652944 31 22.25 C 31 22.753072 31.138901 22.997185 31.271484 23.326172 C 31.404068 23.655159 31.563506 23.994679 31.707031 24.302734 C 32.210264 25.381968 32.835181 26.642152 33.005859 28.115234 A 1.0001 1.0001 0 0 0 34 29 L 38 29 A 1.0001 1.0001 0 0 0 38.894531 28.447266 L 40 26.236328 L 41.105469 28.447266 A 1.0001 1.0001 0 0 0 42 29 L 44 29 A 1.0001 1.0001 0 0 0 44.447266 28.894531 C 44.447266 28.894531 44.909358 28.652365 45.28125 28.1875 C 45.653142 27.722635 46 26.972222 46 26 C 46 23.287555 44.688327 21.362226 43.443359 20 L 45 20 A 1.0001 1.0001 0 0 0 45.949219 18.683594 L 42 6.8378906 L 42 5.3808594 L 52.875 27.966797 L 42.070312 47.378906 A 1.0001 1.0001 0 0 0 42.042969 47.431641 C 41.875281 47.781115 41.529263 48 41.142578 48 L 41 48 L 41 43.515625 C 41.168458 43.384772 41.354335 43.235693 41.580078 43.033203 C 42.102946 42.564194 42.758557 41.901534 43.408203 41.060547 C 44.707495 39.378573 46 36.957418 46 34 A 1.0001 1.0001 0 0 0 45 33 L 42 33 A 1.0001 1.0001 0 0 0 41.105469 33.552734 L 40 35.763672 L 38.894531 33.552734 A 1.0001 1.0001 0 0 0 38 33 L 35 33 A 1.0001 1.0001 0 0 0 34 34 C 34 36.602396 33.002437 37.670104 32.095703 38.716797 C 31.768317 39.094258 31.515361 39.376651 31.308594 39.748047 C 31.101579 40.119888 31 40.581289 31 41 C 31 41.434905 31.112705 41.921593 31.345703 42.298828 C 31.578702 42.676064 31.855002 42.940432 32.207031 43.292969 C 33.038315 44.124252 34 45.030239 34 47 C 34 48.691091 33.302846 49.550715 32.574219 50.490234 A 1.0001 1.0001 0 0 0 32.574219 50.492188 C 31.812154 51.476224 31 52.678533 31 55 A 1.0001 1.0001 0 0 0 32 56 L 33.470703 56 L 31.5 60.505859 L 29.027344 54.851562 C 29.069384 51.739784 30.081929 50.442003 30.992188 49.267578 L 30.994141 49.265625 C 31.299907 48.871573 31.531815 48.578056 31.71875 48.212891 C 31.906082 47.846949 32 47.405144 32 47 C 32 46.565095 31.887295 46.078407 31.654297 45.701172 C 31.421298 45.323936 31.144998 45.059568 30.792969 44.707031 C 29.961685 43.875748 29 42.969761 29 41 C 29 39.19128 29.812655 38.29763 30.583984 37.40625 L 30.582031 37.40625 C 31.288052 36.591281 32 35.620699 32 34 A 1.0001 1.0001 0 0 0 31 33 L 26 33 A 1.0001 1.0001 0 0 0 25.105469 33.552734 L 24 35.763672 L 22.894531 33.552734 A 1.0001 1.0001 0 0 0 22 33 L 19 33 A 1.0001 1.0001 0 0 0 18 34 C 18 36.894856 18.999382 39.289463 20.03125 40.972656 C 20.547184 41.814253 21.071712 42.4804 21.5 42.957031 C 21.689575 43.168005 21.852364 43.328042 22 43.466797 L 22 49.763672 L 11.113281 27.992188 L 22 5.3808594 z M 7.9824219 32.992188 A 1.0001 1.0001 0 0 0 7.4453125 33.158203 L 5.6582031 34.308594 A 1.0001 1.0001 0 1 0 6.7402344 35.990234 L 8.5273438 34.841797 A 1.0001 1.0001 0 0 0 7.9824219 32.992188 z M 10.232422 37.455078 A 1.0001 1.0001 0 0 0 9.6953125 37.621094 L 7.9082031 38.771484 A 1.0001 1.0001 0 1 0 8.9902344 40.453125 L 10.777344 39.304688 A 1.0001 1.0001 0 0 0 10.232422 37.455078 z M 12.482422 41.917969 A 1.0001 1.0001 0 0 0 11.945312 42.083984 L 10.158203 43.234375 A 1.0003674 1.0003674 0 1 0 11.242188 44.916016 L 13.027344 43.765625 A 1.0001 1.0001 0 0 0 12.482422 41.917969 z M 14.732422 46.380859 A 1.0001 1.0001 0 0 0 14.195312 46.546875 L 12.408203 47.695312 A 1.0006598 1.0006598 0 0 0 13.490234 49.378906 L 15.277344 48.228516 A 1.0001 1.0001 0 0 0 14.732422 46.380859 z M 16.982422 50.84375 A 1.0001 1.0001 0 0 0 16.445312 51.009766 L 14.658203 52.158203 A 1.0006598 1.0006598 0 0 0 15.740234 53.841797 L 17.527344 52.691406 A 1.0001 1.0001 0 0 0 16.982422 50.84375 z"/>
</svg>
